<svg xmlns="http://www.w3.org/2000/svg" width="613.406" height="93.75" viewBox="0 0 613.406 93.75">
  <defs>
    <style>
      .cls-1 {
        fill: #141414;
        fill-rule: evenodd;
      }
    </style>
  </defs>
  <path id="THIS_IS_ME_" data-name="THIS IS ME " class="cls-1" d="M61.064,116V37.875H84.5V22.25H22V37.875H45.439V116H61.064Zm57.739,0V76.938h31.25V116h15.625V22.25H150.053V61.313H118.8V22.25H103.178V116H118.8Zm81.177,0V22.25H184.355V116H199.98Zm65.552,0,15.625-15.625V76.938L265.532,61.313H242.094L234.282,53.5V45.688l7.812-7.812h15.625l7.813,7.813h15.625V37.875L265.532,22.25h-31.25L218.657,37.875V61.313l15.625,15.625h23.437l7.813,7.813v7.813l-7.813,7.812H242.094l-7.812-7.812H218.657v7.812L234.282,116h31.25Zm84.228,0V22.25H334.135V116H349.76Zm65.552,0,15.625-15.625V76.938L415.312,61.313H391.875L384.062,53.5V45.688l7.813-7.812H407.5l7.812,7.813h15.625V37.875L415.312,22.25h-31.25L368.437,37.875V61.313l15.625,15.625H407.5l7.812,7.813v7.813l-7.812,7.812H391.875l-7.813-7.812H368.437v7.812L384.062,116h31.25Zm84.229,0V45.688l23.437,23.438,23.438-23.437V116h15.625V22.25H546.416L522.978,45.688,499.541,22.25H483.916V116h15.625Zm135.864,0V100.375H596.342V76.938h31.25V61.313h-31.25V37.875h39.063V22.25H580.717V116h54.688Z" transform="translate(-22 -22.25)"/>
</svg>
